<svg xmlns="http://www.w3.org/2000/svg" width="30.084" height="25.092" viewBox="0 0 30.084 25.092"><defs><style>.a{fill:#999;}</style></defs><path class="a" d="M29.81,44.086,16.942,32.749a2.778,2.778,0,0,0-3.747,0L.328,44.086a.942.942,0,0,0-.1,1.262l.535.689a.8.8,0,0,0,1.177.112L3.37,44.886V55.322a1.74,1.74,0,0,0,1.671,1.792h6.685A1.74,1.74,0,0,0,13.4,55.322V49.5H16.74v5.825a1.74,1.74,0,0,0,1.671,1.792H25.1a1.738,1.738,0,0,0,1.671-1.779V44.885l1.438,1.267a.8.8,0,0,0,1.177-.112l.534-.688a.94.94,0,0,0,.192-.657A.918.918,0,0,0,29.81,44.086ZM24.253,54.425H19.247V48.6a1.74,1.74,0,0,0-1.671-1.792H12.562A1.74,1.74,0,0,0,10.891,48.6v5.825H5.877V42.678l9.192-8.1,9.192,8.1Z" transform="translate(-0.028 -32.022)"/></svg>