<svg xmlns="http://www.w3.org/2000/svg" width="20" height="20" viewBox="0 0 20 20"><defs><style>.a{fill:#33adff;}</style></defs><path class="a" d="M18,8A10,10,0,1,0,28,18,10,10,0,0,0,18,8Zm6.805,4.564L22.269,15.1A5.19,5.19,0,0,0,20.9,13.731l2.536-2.536a8.763,8.763,0,0,1,1.369,1.369ZM18,21.871A3.871,3.871,0,1,1,21.871,18,3.875,3.875,0,0,1,18,21.871Zm4.353-11.417-2.667,2.667a5.179,5.179,0,0,0-3.372,0l-2.667-2.667a8.717,8.717,0,0,1,8.706,0Zm-9.789.741L15.1,13.731A5.19,5.19,0,0,0,13.731,15.1l-2.536-2.536a8.763,8.763,0,0,1,1.369-1.369Zm-2.11,2.452,2.667,2.667a5.179,5.179,0,0,0,0,3.372l-2.667,2.667A8.717,8.717,0,0,1,10.454,13.647Zm.741,9.789L13.731,20.9A5.19,5.19,0,0,0,15.1,22.269l-2.536,2.536a8.765,8.765,0,0,1-1.369-1.369Zm2.452,2.11,2.667-2.667a5.179,5.179,0,0,0,3.372,0l2.667,2.667A8.717,8.717,0,0,1,13.647,25.546Zm9.789-.741L20.9,22.269A5.19,5.19,0,0,0,22.269,20.9l2.536,2.536a8.763,8.763,0,0,1-1.369,1.369Zm2.11-2.452-2.667-2.667a5.18,5.18,0,0,0,0-3.372l2.667-2.667a8.717,8.717,0,0,1,0,8.706Z" transform="translate(-8 -8)"/></svg>