<svg xmlns="http://www.w3.org/2000/svg" width="21.872" height="25" viewBox="0 0 21.872 25"><defs><style>.a{fill:#999;}</style></defs><path class="a" d="M16.795,14.068H5.077a.392.392,0,0,0-.391.391v1.562a.392.392,0,0,0,.391.391H16.795a.392.392,0,0,0,.391-.391V14.459A.392.392,0,0,0,16.795,14.068ZM19.568.286,17.444,1.814,15.559.457a2.338,2.338,0,0,0-2.739,0L10.936,1.814,9.052.457a2.338,2.338,0,0,0-2.739,0L4.428,1.814,2.3.286A1.454,1.454,0,0,0,0,1.467V23.549a1.456,1.456,0,0,0,2.3,1.181L4.428,23.2l1.885,1.357a2.338,2.338,0,0,0,2.739,0L10.936,23.2l1.885,1.357a2.338,2.338,0,0,0,2.739,0L17.444,23.2l2.124,1.528a1.453,1.453,0,0,0,2.3-1.177V1.467A1.455,1.455,0,0,0,19.568.286Zm-.039,21.521-2.085-1.5-3.256,2.343-3.256-2.343L7.675,22.651,4.418,20.308l-2.075,1.5V3.205L4.428,4.7,7.685,2.361,10.941,4.7,14.2,2.361,17.454,4.7l2.075-1.5ZM16.795,8.6H5.077a.392.392,0,0,0-.391.391v1.562a.392.392,0,0,0,.391.391H16.795a.392.392,0,0,0,.391-.391V8.991A.392.392,0,0,0,16.795,8.6Z" transform="translate(0 -0.008)"/></svg>