<svg xmlns="http://www.w3.org/2000/svg" width="43.3" height="43.3" viewBox="0 0 43.3 43.3"><defs><style>.a{fill:#33adff;}</style></defs><path class="a" d="M21.65,8A21.65,21.65,0,1,0,43.3,29.65,21.646,21.646,0,0,0,21.65,8ZM32.825,44.805a18.718,18.718,0,0,1-22.349,0V43.618a5.592,5.592,0,0,1,5.587-5.587c.969,0,2.4,1,5.587,1s4.609-1,5.587-1a5.592,5.592,0,0,1,5.587,5.587ZM35.5,42.4a8.354,8.354,0,0,0-8.259-7.167c-1.79,0-2.654,1-5.587,1s-3.789-1-5.587-1A8.354,8.354,0,0,0,7.8,42.4a18.857,18.857,0,1,1,27.691,0ZM21.65,17.778a7.682,7.682,0,1,0,7.682,7.682A7.682,7.682,0,0,0,21.65,17.778Zm0,12.571a4.889,4.889,0,1,1,4.889-4.889A4.892,4.892,0,0,1,21.65,30.349Z" transform="translate(0 -8)"/></svg>