<svg xmlns="http://www.w3.org/2000/svg" width="22.408" height="25.61" viewBox="0 0 22.408 25.61"><defs><style>.a{fill:#999;}</style></defs><path class="a" d="M15.686,15.206c-1.436,0-2.126.8-4.482.8s-3.041-.8-4.482-.8A6.724,6.724,0,0,0,0,21.928v1.28a2.4,2.4,0,0,0,2.4,2.4H20.008a2.4,2.4,0,0,0,2.4-2.4v-1.28A6.724,6.724,0,0,0,15.686,15.206Zm4.322,8H2.4v-1.28a4.329,4.329,0,0,1,4.322-4.322c.73,0,1.916.8,4.482.8,2.586,0,3.746-.8,4.482-.8a4.329,4.329,0,0,1,4.322,4.322Zm-8.8-8.8A7.2,7.2,0,1,0,4,7.2,7.2,7.2,0,0,0,11.2,14.405Zm0-12A4.8,4.8,0,1,1,6.4,7.2,4.809,4.809,0,0,1,11.2,2.4Z"/></svg>