<svg xmlns="http://www.w3.org/2000/svg" width="23.079" height="20.195" viewBox="0 0 23.079 20.195"><defs><style>.a{fill:#33adff;}</style></defs><path class="a" d="M20.195,35.606v-.721A2.885,2.885,0,0,0,17.31,32H4.327A4.327,4.327,0,0,0,0,36.327v11.54a4.327,4.327,0,0,0,4.327,4.327H20.195a2.885,2.885,0,0,0,2.885-2.885V38.491A2.885,2.885,0,0,0,20.195,35.606Zm.721,13.7a.722.722,0,0,1-.721.721H4.327a2.166,2.166,0,0,1-2.164-2.164V36.327a2.166,2.166,0,0,1,2.164-2.164H17.31a.722.722,0,0,1,.721.721v1.442H5.049a.721.721,0,1,0,0,1.442H20.195a.722.722,0,0,1,.721.721ZM17.31,42.1a1.442,1.442,0,1,0,1.442,1.442A1.443,1.443,0,0,0,17.31,42.1Z" transform="translate(0 -32)"/></svg>