<svg xmlns="http://www.w3.org/2000/svg" width="13.074" height="13.074" viewBox="0 0 13.074 13.074"><defs><style>.a{fill:#999;}</style></defs><path class="a" d="M14.537,8a6.537,6.537,0,1,0,6.537,6.537A6.536,6.536,0,0,0,14.537,8Zm0,11.809a5.272,5.272,0,1,1,5.272-5.272A5.27,5.27,0,0,1,14.537,19.809Zm1.629-2.752L13.928,15.43a.318.318,0,0,1-.129-.256V10.847a.317.317,0,0,1,.316-.316h.843a.317.317,0,0,1,.316.316v3.735l1.761,1.281a.316.316,0,0,1,.069.443l-.5.683A.318.318,0,0,1,16.166,17.057Z" transform="translate(-8 -8)"/></svg>