<svg xmlns="http://www.w3.org/2000/svg" width="25.353" height="23.769" viewBox="0 0 25.353 23.769"><defs><style>.a{fill:#999;}</style></defs><path class="a" d="M22.976,22.338H21.684a4.318,4.318,0,0,0,.5-1.981A4.364,4.364,0,0,0,17.827,16c-2.06,0-3.392,1.055-5.1,3.382C11.018,17.055,9.686,16,7.626,16a4.364,4.364,0,0,0-4.358,4.358,4.257,4.257,0,0,0,.5,1.981H2.377A2.377,2.377,0,0,0,0,24.715v6.338a.8.8,0,0,0,.792.792h.792v5.318a2.608,2.608,0,0,0,2.6,2.6H21.164a2.608,2.608,0,0,0,2.6-2.6V31.846h.792a.8.8,0,0,0,.792-.792V24.715A2.377,2.377,0,0,0,22.976,22.338ZM11.488,37.392h-7.3a.227.227,0,0,1-.228-.228V31.846H9.507V29.469H2.377V24.715h9.111ZM7.621,22.338a1.981,1.981,0,0,1,0-3.961c1.089,0,1.857.376,4.164,3.813l.1.149Zm6.041-.149c2.308-3.437,3.075-3.813,4.164-3.813a1.981,1.981,0,0,1,0,3.961H13.563Zm9.314,7.279H15.846v2.377h5.546v5.318a.227.227,0,0,1-.228.228h-7.3V24.715h9.111Z" transform="translate(0 -16)"/></svg>