<svg xmlns="http://www.w3.org/2000/svg" width="15.122" height="20.163" viewBox="0 0 15.122 20.163"><defs><style>.a{fill:#33adff;}</style></defs><path class="a" d="M7.561,0A7.561,7.561,0,0,0,0,7.561c0,2.8.945,3.676,5.957,11.713a1.891,1.891,0,0,0,3.208,0c5.015-8.041,5.957-8.913,5.957-11.713A7.561,7.561,0,0,0,7.561,0Zm0,18.272C2.543,10.226,1.89,9.719,1.89,7.561a5.671,5.671,0,1,1,11.341,0C13.232,9.709,12.634,10.137,7.561,18.272ZM4.411,7.561a3.15,3.15,0,1,1,3.15,3.15A3.15,3.15,0,0,1,4.411,7.561Z"/></svg>