<svg xmlns="http://www.w3.org/2000/svg" width="15.122" height="18" viewBox="0 0 15.122 18"><defs><style>.a{fill:#fff;opacity:0.7;}</style></defs><path class="a" d="M7.561,0C3.383,0,0,3.024,0,6.75c0,2.5.945,3.282,5.957,10.456a2.017,2.017,0,0,0,3.208,0C14.18,10.028,15.122,9.25,15.122,6.75,15.122,3.02,11.735,0,7.561,0Zm0,16.313C2.543,9.13,1.89,8.676,1.89,6.75c0-2.8,2.539-5.063,5.671-5.063s5.671,2.267,5.671,5.063C13.232,8.668,12.634,9.05,7.561,16.313ZM4.411,6.75a3,3,0,0,1,3.15-2.813,3,3,0,0,1,3.15,2.813,3,3,0,0,1-3.15,2.813A3,3,0,0,1,4.411,6.75Z"/></svg>